<?xml version="1.0" standalone="no"?>
<!DOCTYPE svg PUBLIC "-//W3C//DTD SVG 20010904//EN"
 "http://www.w3.org/TR/2001/REC-SVG-20010904/DTD/svg10.dtd">
<svg version="1.0" xmlns="http://www.w3.org/2000/svg"
 width="352.000000pt" height="352.000000pt" viewBox="0 0 352.000000 352.000000"
 preserveAspectRatio="xMidYMid meet">
<metadata>
Created by potrace 1.14, written by Peter Selinger 2001-2017
</metadata>
<g transform="translate(0.000000,352.000000) scale(0.100000,-0.100000)"
fill="#000000" stroke="none">
<path d="M1605 3378 c-170 -19 -383 -82 -539 -160 -66 -33 -135 -77 -151 -94
-5 -7 -28 -25 -50 -40 -48 -34 -143 -123 -234 -217 -233 -242 -376 -572 -413
-955 -30 -303 59 -688 220 -957 95 -158 263 -345 396 -439 36 -26 66 -51 66
-55 0 -4 29 -24 64 -44 36 -21 66 -42 68 -46 2 -4 35 -22 73 -40 335 -157 730
-192 1071 -96 130 37 317 114 339 140 5 6 35 27 65 45 30 18 59 38 65 45 5 6
39 34 75 61 88 65 224 203 292 294 63 85 148 222 148 239 0 6 12 35 26 64 34
66 59 139 88 252 43 165 51 233 50 420 -1 157 -4 197 -28 310 -79 370 -228
626 -521 895 -33 31 -78 69 -100 85 -22 16 -50 39 -62 50 -12 12 -66 44 -120
72 -273 143 -592 205 -888 171z m85 -883 l0 -195 -275 0 -275 0 0 -155 0 -155
258 -2 257 -3 3 -197 2 -198 -260 0 -260 0 0 -160 0 -160 275 0 275 0 -2 -197
-3 -198 -502 -3 -503 -2 0 910 0 910 505 0 505 0 0 -195z m1160 -496 c0 -768
-1 -776 -66 -884 -19 -32 -34 -61 -34 -65 0 -13 -104 -105 -156 -138 -100 -63
-153 -76 -315 -76 l-146 -1 -84 42 c-59 29 -102 60 -146 104 -35 35 -63 68
-63 75 0 6 -7 17 -15 24 -13 11 1 30 103 134 65 67 131 138 146 159 16 20 31
37 35 37 3 0 12 -23 18 -50 17 -69 46 -107 94 -121 58 -18 111 1 141 49 l23
37 3 683 3 682 229 0 230 0 0 -691z"/>
</g>
</svg>
